<?xml version="1.0" encoding="UTF-8"?>
<svg id="Layer_1" data-name="Layer 1" xmlns="http://www.w3.org/2000/svg" viewBox="0 0 109.15 60.23">
  <defs>
    <style>
      .cls-1 {
        fill: #b7b6b4;
      }

      .cls-2 {
        fill: #bbd9ff;
      }

      .cls-3 {
        fill: #f3f3e8;
      }
    </style>
  </defs>
  <g>
    <rect class="cls-2" x="18.42" y="14.81" width="70.46" height="41.48" rx="8.38" ry="8.38"/>
    <path class="cls-1" d="M81,56.51H26.3c-4.46,0-8.1-3.63-8.1-8.1v-25.72c0-4.46,3.63-8.1,8.1-8.1h54.7c4.46,0,8.1,3.63,8.1,8.1v25.72c0,4.46-3.63,8.1-8.1,8.1ZM26.3,15.03c-4.22,0-7.66,3.44-7.66,7.66v25.72c0,4.22,3.44,7.66,7.66,7.66h54.7c4.22,0,7.66-3.44,7.66-7.66v-25.72c0-4.22-3.44-7.66-7.66-7.66H26.3Z"/>
  </g>
  <path class="cls-1" d="M53.5,35.67c-1.06,0-2.11-.19-3.12-.57l-32.11-12.2.15-.41,32.11,12.2c1.9.72,4,.73,5.91,0l32.43-12.21.15.41-32.43,12.21c-1,.38-2.05.56-3.1.56Z"/>
  <g>
    <path class="cls-2" d="M83.86,15.31L56.84,2.16c-1.95-.95-4.11-.95-6.06-.01l-28.66,13.82"/>
    <path class="cls-1" d="M22.22,16.16l-.19-.39L50.69,1.95c2.02-.97,4.24-.97,6.25.01l27.02,13.15-.19.39L56.75,2.35c-1.89-.92-3.98-.93-5.87-.01l-28.66,13.82Z"/>
  </g>
  <path class="cls-3" d="M53.45,15.68c.17.03.22.02.36-.08.38-.3.95-1.24,1.52-1.69,3.18-2.5,7.48-1.21,8.91,2.49,2.77,7.16-6.36,12.26-9.99,17.11l-.57.33c-.31.03-3.98-3.78-4.52-4.34-2.59-2.65-6.33-5.91-6.6-9.8-.47-6.81,7.2-9.84,10.89-4.02Z"/>
</svg>