<?xml version="1.0" encoding="UTF-8"?>
<svg id="Layer_1" data-name="Layer 1" xmlns="http://www.w3.org/2000/svg" viewBox="0 0 9.14 8.65">
  <defs>
    <style>
      .cls-1, .cls-2 {
        fill: #2e3192;
      }

      .cls-3 {
        fill: #d4bbff;
      }

      .cls-4 {
        fill: #0f62fe;
      }

      .cls-5 {
        fill: #fff;
      }

      .cls-2 {
        font-family: MuseoModerno-SemiBold, MuseoModerno;
        font-size: 1.61px;
        font-weight: 600;
      }

      .cls-6 {
        fill: #002d9c;
      }
    </style>
  </defs>
  <rect class="cls-1" x="6.66" y="5.11" width="1.03" height="1.88" rx=".47" ry=".47"/>
  <rect class="cls-3" width="9.14" height="8.65" rx="1.29" ry="1.29"/>
  <text class="cls-2" transform="translate(1.64 2.44)"><tspan x="0" y="0">ask pm</tspan></text>
  <path class="cls-6" d="M7.71,4.7v2.44h-1.05s0-2.44,0-2.44c0-.14-.04-.28-.12-.39-.07-.12-.17-.21-.3-.29-.12-.07-.26-.1-.41-.1s-.29.03-.41.1c-.13.08-.22.17-.3.29-.07.12-.11.25-.11.39v.88h-1.06v-.88s0-.08,0-.12c.01-.26.09-.5.22-.72.15-.26.37-.46.64-.61.28-.15.62-.23,1.01-.23s.73.08,1.01.23c.13.06.24.15.34.24.12.11.22.23.3.37.13.22.2.45.22.71,0,.04,0,.09,0,.13Z"/>
  <path class="cls-4" d="M3.3,4.95h-1.96v2.24c0,.07.09.1.13.05l1.84-2.28Z"/>
  <path class="cls-4" d="M5.09,4.7v.88h-1.05s0-.88,0-.88c0-.14-.04-.28-.12-.39-.07-.12-.17-.21-.3-.29-.12-.07-.26-.1-.41-.1s-.29.03-.41.1c-.13.08-.22.17-.3.29-.07.12-.11.25-.11.39v.88h-1.06v-.88s0-.08,0-.12c.01-.26.09-.5.22-.72.15-.26.37-.46.64-.61.28-.15.62-.23,1.01-.23s.73.08,1.01.23c.13.06.24.15.34.24.12.11.22.23.3.37.13.22.2.45.22.71,0,.04,0,.09,0,.13Z"/>
  <path class="cls-4" d="M4.04,4.7v.76c0,.14-.04.28-.12.39-.07.12-.17.21-.3.28-.12.08-.26.11-.41.11s-.29-.03-.41-.11c-.13-.07-.22-.17-.3-.28-.07-.12-.11-.25-.11-.39v-.76c0-.14.04-.28.11-.39.08-.12.17-.21.3-.29.12-.07.26-.1.41-.1s.29.03.41.1c.13.08.23.17.3.29.08.12.12.25.12.39Z"/>
  <path class="cls-4" d="M5.09,4.56v.89s0,.08,0,.12h0c-.02.26-.09.51-.22.72-.15.26-.37.46-.64.61-.28.15-.61.23-1.01.23s-.73-.08-1.01-.23c-.18-.1-.34-.22-.46-.37t0-.01c-.07-.07-.12-.15-.17-.23-.13-.22-.2-.46-.22-.72,0-.04,0-.08,0-.13v-.88h1.06s0,.88,0,.88c0,.14.04.28.11.39.08.12.17.21.3.28.12.08.26.11.41.11s.29-.03.41-.11c.13-.07.23-.17.3-.28.08-.12.12-.25.12-.39v-.89h1.05Z"/>
  <circle class="cls-5" cx="2.56" cy="4.87" r=".34"/>
  <circle class="cls-5" cx="4.36" cy="4.87" r=".34"/>
</svg>