<?xml version="1.0" encoding="UTF-8"?>
<svg id="Layer_1" data-name="Layer 1" xmlns="http://www.w3.org/2000/svg" viewBox="0 0 464.29 171.8">
  <defs>
    <style>
      .cls-1 {
        fill: #78a9ff;
      }

      .cls-2 {
        fill: none;
        stroke: #000;
      }

      .cls-2, .cls-3, .cls-4, .cls-5, .cls-6 {
        stroke-miterlimit: 10;
      }

      .cls-7 {
        fill: #00aeef;
      }

      .cls-8, .cls-9, .cls-10 {
        fill: #2e3192;
      }

      .cls-3, .cls-5 {
        stroke: #0013ff;
      }

      .cls-3, .cls-5, .cls-11 {
        fill: #0013ff;
      }

      .cls-12 {
        fill: #d4bbff;
      }

      .cls-13, .cls-6 {
        fill: #0f62fe;
      }

      .cls-14 {
        fill: #bab0ff;
      }

      .cls-15 {
        fill: #fff;
      }

      .cls-16 {
        fill: #8d8dff;
      }

      .cls-4 {
        fill: #f3f3e8;
        stroke: #b7b6b4;
        stroke-width: .55px;
      }

      .cls-17 {
        fill: #a6c8ff;
      }

      .cls-9, .cls-18, .cls-10, .cls-19 {
        font-family: MuseoModerno-SemiBold, MuseoModerno;
        font-weight: 600;
      }

      .cls-9, .cls-19 {
        font-size: 1.61px;
      }

      .cls-20 {
        fill: #231f20;
      }

      .cls-21 {
        fill: #6929c4;
      }

      .cls-5 {
        stroke-width: .25px;
      }

      .cls-18 {
        font-size: 12px;
      }

      .cls-6 {
        stroke: #0f62fe;
      }

      .cls-22 {
        fill: #4589ff;
      }

      .cls-23 {
        fill: #8a3ffc;
      }

      .cls-10 {
        font-size: 1.58px;
      }

      .cls-24 {
        fill: #002d9c;
      }

      .cls-25 {
        fill: #a56eff;
      }

      .cls-26 {
        fill: #d0e2ff;
      }

      .cls-19 {
        fill: #491d8b;
      }

      .cls-27 {
        fill: #33b1ff;
      }
    </style>
  </defs>
  <rect class="cls-12" x="411.39" y="67.53" width="9.14" height="8.65" rx="1.29" ry="1.29"/>
  <path class="cls-13" d="M416.01,71.39h-3.07v3.49c0,.11.13.15.2.07l2.87-3.56Z"/>
  <path class="cls-13" d="M418.56,71.55v1.31h-1.57s0-1.31,0-1.31c0-.21-.06-.41-.17-.58-.11-.18-.26-.32-.45-.43-.18-.11-.39-.15-.61-.15s-.43.05-.61.15c-.19.12-.34.25-.45.43-.11.17-.16.37-.16.58v1.32h-1.58v-1.32c0-.07,0-.12,0-.18.02-.39.13-.75.33-1.08.22-.38.55-.69.96-.91.42-.23.92-.35,1.51-.35s1.09.12,1.51.35c.19.1.35.22.51.35.18.16.33.35.45.56.19.33.3.68.33,1.06,0,.07,0,.13,0,.2Z"/>
  <path class="cls-6" d="M417.04,70.89v1.13c0,.21-.06.41-.17.58-.11.17-.26.32-.45.42-.18.12-.39.16-.61.16s-.43-.05-.61-.16c-.19-.11-.34-.25-.45-.42-.11-.17-.16-.37-.16-.58v-1.13c0-.21.06-.41.16-.58.12-.18.26-.32.45-.43.18-.11.39-.15.61-.15s.43.05.61.15c.19.12.35.25.45.43.12.17.17.37.17.58Z"/>
  <path class="cls-13" d="M418.56,71.53v.49c0,.07,0,.12,0,.18h0c-.03.39-.13.76-.32,1.08-.22.38-.54.69-.95.91-.42.23-.91.35-1.5.35s-1.08-.12-1.5-.35c-.27-.14-.5-.33-.68-.55t0-.02c-.1-.11-.18-.22-.26-.35-.19-.33-.29-.69-.32-1.07,0-.06,0-.12,0-.19v-.82.14s1.57-.02,1.57-.02v.7c0,.21.06.41.16.58.11.17.26.32.45.42.18.12.39.16.61.16s.43-.05.61-.16c.19-.11.34-.25.45-.42.11-.17.17-.37.17-.58v-.49h1.56Z"/>
  <line class="cls-5" x1="380.89" y1="78.81" x2="380.89" y2="80.11"/>
  <circle class="cls-11" cx="380.89" cy="78.78" r=".4"/>
  <circle class="cls-15" cx="414.99" cy="71.51" r=".39"/>
  <circle class="cls-15" cx="417.05" cy="71.51" r=".39"/>
  <rect class="cls-14" x="371.6" y="63.9" width="9.76" height="9.23" rx="1.29" ry="1.29"/>
  <rect class="cls-14" x="381.25" y="67.78" width="9.14" height="8.65" rx="1.29" ry="1.29"/>
  <rect class="cls-14" x="396.37" y="52.78" width="9.14" height="8.65" rx="1.29" ry="1.29"/>
  <path class="cls-16" d="M371.53,59.42v3.88h-1.64s0-3.88,0-3.88c0-.22-.06-.43-.18-.61-.11-.19-.27-.33-.46-.45-.2-.11-.41-.16-.65-.16s-.44.05-.64.16c-.19.12-.35.26-.47.45-.11.18-.17.39-.17.61v1.38h-1.64v-1.38c0-.07,0-.14.01-.21.03-.4.13-.77.33-1.11.13-.22.29-.41.48-.58.15-.14.33-.27.53-.37.43-.24.96-.36,1.57-.36s1.15.12,1.58.36c.44.23.77.55,1,.95.24.4.35.84.35,1.32Z"/>
  <path class="cls-20" d="M93.62,69.49c6.55,20.6,19.54,35.52,35,41.17h-63.2v3h63.2c-15.57,5.68-28.63,20.77-35.14,41.59h3.15c8.11-24.99,26.01-41.08,45.88-41.08v-4.03c-19.76,0-37.57-15.9-45.74-40.65h-3.15Z"/>
  <path class="cls-20" d="M244.28,122.91c-20.6,6.55-35.52,19.54-41.17,35V52.94h-3v104.97c-5.68-15.57-20.77-28.63-41.59-35.14v3.15c24.99,8.11,41.08,26.01,41.08,45.88h4.03c0-19.76,15.9-37.57,40.65-45.74v-3.15Z"/>
  <path d="M358.82,75.86c.52,0,.98.08,1.38.25.4.16.74.4,1.01.7.27.3.48.65.62,1.06.14.4.22.85.22,1.33,0,.6-.12,1.13-.37,1.6-.24.46-.59.83-1.03,1.09-.44.26-.96.4-1.56.4-.26,0-.5-.04-.74-.11-.24-.07-.45-.18-.64-.31-.19-.14-.35-.3-.47-.48h-.01v3.4h-1.64v-5.58c0-.68.13-1.27.4-1.76.26-.5.64-.88,1.12-1.15.48-.27,1.05-.41,1.71-.41ZM358.82,77.26c-.32,0-.6.08-.83.24-.24.16-.42.38-.54.65-.12.27-.19.58-.19.91s.06.64.19.91.3.49.54.65c.24.16.51.24.83.24s.61-.08.84-.24c.23-.16.41-.38.53-.65s.19-.58.19-.91-.06-.64-.19-.91c-.12-.27-.3-.49-.53-.65-.23-.16-.51-.24-.84-.24Z"/>
  <path d="M358.34,63.7c.52,0,.98.08,1.38.25.4.16.74.4,1.01.7.27.3.48.65.62,1.06.14.4.22.85.22,1.33,0,.6-.12,1.13-.37,1.6-.24.46-.59.83-1.03,1.09-.44.26-.96.4-1.56.4-.26,0-.5-.04-.74-.11-.24-.07-.45-.18-.64-.31-.19-.14-.35-.3-.47-.48h-.01v3.4h-1.64v-5.58c0-.68.13-1.27.4-1.76.26-.5.64-.88,1.12-1.15.48-.27,1.05-.41,1.71-.41ZM358.34,65.1c-.32,0-.6.08-.83.24-.24.16-.42.38-.54.65-.12.27-.19.58-.19.91s.06.64.19.91.3.49.54.65c.24.16.51.24.83.24s.61-.08.84-.24c.23-.16.41-.38.53-.65s.19-.58.19-.91-.06-.64-.19-.91c-.12-.27-.3-.49-.53-.65-.23-.16-.51-.24-.84-.24Z"/>
  <path d="M355.09,58.74v-3.99c0-.48.12-.92.35-1.32.23-.4.57-.72,1-.95.44-.24.96-.35,1.58-.35.3,0,.57.03.82.1.25.07.49.17.7.29.22.13.4.28.56.46h.01c.17-.18.36-.33.58-.46.22-.13.45-.23.71-.29.26-.07.53-.1.83-.1.62,0,1.14.12,1.58.35.44.24.77.55,1,.95.23.4.35.84.35,1.32v3.64h-1.64v-3.64c0-.22-.06-.43-.17-.61-.12-.18-.27-.33-.46-.44-.19-.11-.41-.17-.65-.17s-.45.06-.64.17c-.2.11-.35.26-.47.44-.12.18-.17.39-.17.61v.97h-1.64v-.97c0-.22-.06-.43-.17-.61-.12-.18-.27-.33-.46-.44-.19-.11-.41-.17-.65-.17s-.45.06-.64.17c-.2.11-.35.26-.47.44-.12.18-.17.39-.17.61v3.99h-1.64Z"/>
  <path d="M383.17,54.45v.99c0,.16-.04.31-.12.44-.08.13-.19.24-.33.32-.14.08-.29.12-.46.12s-.32-.04-.46-.12c-.14-.08-.25-.19-.33-.32-.08-.13-.12-.28-.12-.44v-.99h-1.17v.99c0,.34.08.66.25.94.17.29.4.51.72.68.31.17.69.25,1.13.25s.81-.08,1.13-.25c.31-.17.55-.4.72-.68.17-.29.25-.6.25-.94v-.99h-1.17Z"/>
  <path d="M381.34,55.58v-.99c0-.16.04-.31.12-.44.08-.13.19-.24.33-.32.14-.08.29-.12.46-.12s.32.04.46.12c.14.08.25.19.33.32.08.13.12.28.12.44v.99h1.17v-.99c0-.34-.08-.66-.25-.94-.17-.29-.4-.51-.72-.68-.31-.17-.69-.25-1.13-.25s-.81.08-1.13.25c-.31.17-.55.4-.72.68-.17.29-.25.6-.25.94v.99h1.17Z"/>
  <path d="M387.26,54.45v.99c0,.16-.04.31-.12.44-.08.13-.19.24-.33.32-.14.08-.29.12-.46.12s-.32-.04-.46-.12c-.14-.08-.25-.19-.33-.32-.08-.13-.12-.28-.12-.44v-.99h-1.17v.99c0,.34.08.66.25.94.17.29.4.51.72.68.31.17.69.25,1.13.25s.81-.08,1.13-.25c.31-.17.55-.4.72-.68.17-.29.25-.6.25-.94v-.99h-1.17Z"/>
  <path d="M385.43,55.58v-.99c0-.16.04-.31.12-.44.08-.13.19-.24.33-.32.14-.08.29-.12.46-.12s.32.04.46.12c.14.08.25.19.33.32.08.13.12.28.12.44v.99h1.17v-.99c0-.34-.08-.66-.25-.94-.17-.29-.4-.51-.72-.68-.31-.17-.69-.25-1.13-.25s-.81.08-1.13.25c-.31.17-.55.4-.72.68-.17.29-.25.6-.25.94v.99h1.17Z"/>
  <text class="cls-18" transform="translate(283.33 47.34)"><tspan x="0" y="0">p</tspan></text>
  <text class="cls-18" transform="translate(291.28 47.34)"><tspan x="0" y="0">m</tspan></text>
  <rect class="cls-2" x="376.95" y="50.32" width="14.39" height="10.61" rx="4.96" ry="4.96"/>
  <path class="cls-11" d="M400.93,56.75h-3.07v3.49c0,.11.13.15.2.07l2.87-3.56Z"/>
  <path class="cls-11" d="M403.73,56.36v1.37h-1.64s0-1.37,0-1.37c0-.22-.06-.43-.18-.61-.11-.19-.27-.33-.47-.45-.19-.11-.41-.16-.64-.16s-.45.05-.64.16c-.2.12-.35.26-.47.45-.11.18-.17.39-.17.61v1.38h-1.65v-1.38c0-.07,0-.13.01-.19.02-.41.14-.78.34-1.13.23-.4.57-.72,1-.95.44-.24.96-.36,1.58-.36s1.14.12,1.58.36c.2.1.37.23.53.37.19.17.34.36.47.58.2.34.31.71.34,1.11.01.07.01.14.01.21Z"/>
  <path class="cls-11" d="M402.09,56.36v1.18c0,.22-.06.43-.18.61-.11.18-.27.33-.47.44-.19.12-.41.17-.64.17s-.45-.05-.64-.17c-.2-.11-.35-.26-.47-.44-.11-.18-.17-.39-.17-.61v-1.18c0-.22.06-.43.17-.61.12-.19.27-.33.47-.45.19-.11.41-.16.64-.16s.45.05.64.16c.2.12.36.26.47.45.12.18.18.39.18.61Z"/>
  <path class="cls-11" d="M403.73,56.15v1.39c0,.07,0,.13-.01.19h0c-.03.41-.14.79-.34,1.13-.23.4-.57.72-1,.95-.44.24-.96.36-1.58.36s-1.14-.12-1.58-.36c-.28-.15-.53-.34-.72-.57t0-.02c-.11-.11-.19-.23-.27-.36-.2-.34-.31-.72-.34-1.12-.01-.06-.01-.13-.01-.2v-1.37h.01l1.64-.02v1.39c0,.22.06.43.17.61.12.18.27.33.47.44.19.12.41.17.64.17s.45-.05.64-.17c.2-.11.36-.26.47-.44.12-.18.18-.39.18-.61v-1.39h1.64Z"/>
  <path class="cls-15" d="M400.26,56.89v.17s0,.06-.03.09c-.02.03-.04.05-.07.07-.03.02-.06.03-.1.03s-.07,0-.1-.03c-.03-.02-.06-.04-.07-.07-.02-.03-.03-.06-.03-.09v-.17s0-.06.03-.09c.02-.03.04-.05.07-.07.03-.02.06-.02.1-.02s.07,0,.1.02c.03.02.06.04.07.07.02.03.03.06.03.09Z"/>
  <path class="cls-15" d="M402.18,56.89v.17s0,.06-.03.09c-.02.03-.04.05-.07.07-.03.02-.06.03-.1.03s-.07,0-.1-.03c-.03-.02-.06-.04-.07-.07-.02-.03-.03-.06-.03-.09v-.17s0-.06.03-.09c.02-.03.04-.05.07-.07.03-.02.06-.02.1-.02s.07,0,.1.02c.03.02.06.04.07.07.02.03.03.06.03.09Z"/>
  <g>
    <rect class="cls-7" x="401.51" y="57.5" width="2.95" height="2.62" rx=".43" ry=".43"/>
    <path class="cls-8" d="M404.09,57.5c-.06,0-.11.02-.15.03l-.05.03s-.01,0-.01,0l-.68.6-.21.19-.21-.19-.68-.6s-.01,0-.01,0l-.05-.03s-.09-.03-.15-.03c-.2,0-.37.16-.37.37v1.92c0,.2.16.37.37.37s.37-.16.37-.37v-1.11l.73.64h0s0,0,0,0h0s0,0,0,0h0s0,0,0,0l.73-.64v1.11c0,.2.16.37.37.37s.37-.16.37-.37v-1.92c0-.2-.16-.37-.37-.37Z"/>
  </g>
  <text class="cls-9" transform="translate(382.89 69.7)"><tspan x="0" y="0">ask pm</tspan></text>
  <path class="cls-8" d="M388.96,71.95v1.92h-1.03s0-1.92,0-1.92c0-.14-.04-.27-.11-.38-.07-.12-.17-.21-.29-.28-.12-.07-.26-.1-.4-.1s-.28.03-.4.1c-.13.08-.22.16-.29.28-.07.11-.11.24-.11.38v.87h-1.04v-.87s0-.08,0-.12c.01-.26.09-.49.21-.71.14-.25.36-.45.63-.6.28-.15.6-.23.99-.23s.72.08.99.23c.13.06.23.14.33.23.12.11.21.23.29.36.13.21.19.45.21.7,0,.04,0,.09,0,.13Z"/>
  <path class="cls-11" d="M384.61,72.2h-1.92v2.62c0,.07.08.1.13.04l1.8-2.66Z"/>
  <path class="cls-11" d="M386.37,71.95v.86h-1.03s0-.86,0-.86c0-.14-.04-.27-.11-.38-.07-.12-.17-.21-.29-.28-.12-.07-.26-.1-.4-.1s-.28.03-.4.1c-.13.08-.22.16-.29.28-.07.11-.11.24-.11.38v.87h-1.04v-.87s0-.08,0-.12c.01-.26.09-.49.21-.71.14-.25.36-.45.63-.6.28-.15.6-.23.99-.23s.72.08.99.23c.13.06.23.14.33.23.12.11.21.23.29.36.13.21.19.45.21.7,0,.04,0,.09,0,.13Z"/>
  <path class="cls-3" d="M385.34,72.19v.98c0,.18-.04.36-.11.5-.07.15-.17.27-.29.36-.12.1-.26.14-.4.14s-.28-.04-.4-.14c-.13-.09-.22-.21-.29-.36-.07-.15-.11-.32-.11-.5v-.98c0-.18.04-.36.11-.5.08-.16.17-.27.29-.37.12-.09.26-.13.4-.13s.28.04.4.13c.13.1.23.21.29.37.08.15.11.32.11.5Z"/>
  <path class="cls-11" d="M386.37,72.33v.87s0,.08,0,.12h0c-.02.26-.09.5-.21.71-.14.25-.36.45-.63.6-.28.15-.6.23-.99.23s-.72-.08-.99-.23c-.18-.09-.33-.21-.45-.36t0-.01c-.07-.07-.12-.14-.17-.23-.13-.21-.19-.45-.21-.7,0-.04,0-.08,0-.13v-.86h1.04s0,.86,0,.86c0,.14.04.27.11.38.08.11.17.21.29.28.12.08.26.11.4.11s.28-.03.4-.11c.13-.07.23-.16.29-.28.08-.11.11-.24.11-.38v-.87h1.03Z"/>
  <g>
    <path class="cls-15" d="M384.1,72.6v.11s0,.04-.02.06c-.01.02-.03.03-.05.04-.02.01-.04.02-.06.02s-.04,0-.06-.02c-.02-.01-.03-.02-.05-.04-.01-.02-.02-.04-.02-.06v-.11s0-.04.02-.06c.01-.02.03-.03.05-.04.02-.01.04-.01.06-.01s.04,0,.06.01c.02.01.04.02.05.04.01.02.02.04.02.06Z"/>
    <path class="cls-15" d="M385.3,72.6v.11s0,.04-.02.06c-.01.02-.03.03-.05.04-.02.01-.04.02-.06.02s-.04,0-.06-.02c-.02-.01-.03-.02-.05-.04-.01-.02-.02-.04-.02-.06v-.11s0-.04.02-.06c.01-.02.03-.03.05-.04.02-.01.04-.01.06-.01s.04,0,.06.01c.02.01.04.02.05.04.01.02.02.04.02.06Z"/>
  </g>
  <rect class="cls-8" x="387.93" y="72.89" width="1.03" height="1.88" rx=".47" ry=".47"/>
  <rect class="cls-8" x="408.13" y="72.81" width="1.03" height="1.88" rx=".47" ry=".47"/>
  <rect class="cls-12" x="401.47" y="67.7" width="9.14" height="8.65" rx="1.29" ry="1.29"/>
  <text class="cls-9" transform="translate(403.11 70.14)"><tspan x="0" y="0">ask pm</tspan></text>
  <path class="cls-24" d="M409.18,72.39v2.44h-1.05s0-2.44,0-2.44c0-.14-.04-.28-.12-.39-.07-.12-.17-.21-.3-.29-.12-.07-.26-.1-.41-.1s-.29.03-.41.1c-.13.08-.22.17-.3.29-.07.12-.11.25-.11.39v.88h-1.06v-.88s0-.08,0-.12c.01-.26.09-.5.22-.72.15-.26.37-.46.64-.61.28-.15.62-.23,1.01-.23s.73.08,1.01.23c.13.06.24.15.34.24.12.11.22.23.3.37.13.22.2.45.22.71,0,.04,0,.09,0,.13Z"/>
  <path class="cls-13" d="M404.77,72.65h-1.96v2.24c0,.07.09.1.13.05l1.84-2.28Z"/>
  <path class="cls-13" d="M406.56,72.39v.88h-1.05s0-.88,0-.88c0-.14-.04-.28-.12-.39-.07-.12-.17-.21-.3-.29-.12-.07-.26-.1-.41-.1s-.29.03-.41.1c-.13.08-.22.17-.3.29-.07.12-.11.25-.11.39v.88h-1.06v-.88s0-.08,0-.12c.01-.26.09-.5.22-.72.15-.26.37-.46.64-.61.28-.15.62-.23,1.01-.23s.73.08,1.01.23c.13.06.24.15.34.24.12.11.22.23.3.37.13.22.2.45.22.71,0,.04,0,.09,0,.13Z"/>
  <path class="cls-13" d="M405.51,72.39v.76c0,.14-.04.28-.12.39-.07.12-.17.21-.3.28-.12.08-.26.11-.41.11s-.29-.03-.41-.11c-.13-.07-.22-.17-.3-.28-.07-.12-.11-.25-.11-.39v-.76c0-.14.04-.28.11-.39.08-.12.17-.21.3-.29.12-.07.26-.1.41-.1s.29.03.41.1c.13.08.23.17.3.29.08.12.12.25.12.39Z"/>
  <path class="cls-13" d="M406.56,72.26v.89s0,.08,0,.12h0c-.02.26-.09.51-.22.72-.15.26-.37.46-.64.61-.28.15-.61.23-1.01.23s-.73-.08-1.01-.23c-.18-.1-.34-.22-.46-.37t0-.01c-.07-.07-.12-.15-.17-.23-.13-.22-.2-.46-.22-.72,0-.04,0-.08,0-.13v-.88h1.06s0,.88,0,.88c0,.14.04.28.11.39.08.12.17.21.3.28.12.08.26.11.41.11s.29-.03.41-.11c.13-.07.23-.17.3-.28.08-.12.12-.25.12-.39v-.89h1.05Z"/>
  <g>
    <path class="cls-27" d="M417.77,73.51h1.76v1.56s-.06.07-.09.03l-1.67-1.59Z"/>
    <rect class="cls-27" x="416.76" y="72.43" width="2.76" height="2.46" rx="1.23" ry="1.23"/>
    <path class="cls-24" d="M418.8,72.93s-.06,0-.09.02l-.03.02s0,0,0,0l-.4.35-.13.11-.13-.11-.4-.35s0,0,0,0l-.03-.02s-.05-.02-.09-.02c-.12,0-.22.1-.22.22v1.13c0,.12.1.22.22.22s.22-.1.22-.22v-.66l.43.38h0s0,0,0,0h0s0,0,0,0h0s0,0,0,0l.43-.38v.66c0,.12.1.22.22.22s.22-.1.22-.22v-1.13c0-.12-.1-.22-.22-.22Z"/>
  </g>
  <rect class="cls-14" x="391.28" y="67.46" width="9.14" height="8.65" rx="1.29" ry="1.29"/>
  <path class="cls-11" d="M395.84,71.44h-3.07v3.49c0,.11.13.15.2.07l2.87-3.56Z"/>
  <path class="cls-7" d="M397.49,73.33h1.87v1.66c0,.05-.06.07-.1.03l-1.78-1.7Z"/>
  <path class="cls-11" d="M398.75,71.04v1.37h-1.67s0-1.37,0-1.37c0-.22-.06-.43-.18-.61-.11-.19-.28-.33-.48-.45-.19-.11-.42-.16-.65-.16s-.46.05-.65.16c-.2.12-.36.26-.48.45-.11.18-.17.39-.17.61v1.38h-1.68v-1.38c0-.07,0-.13.01-.19.02-.41.14-.78.35-1.13.23-.4.58-.72,1.02-.95.45-.24.98-.36,1.61-.36s1.16.12,1.61.36c.2.1.38.23.54.37.19.17.35.36.48.58.2.34.32.71.35,1.11.01.07.01.14.01.21Z"/>
  <path class="cls-11" d="M397.08,71.04v1.18c0,.22-.06.43-.18.61-.11.18-.28.33-.48.44-.19.12-.42.17-.65.17s-.46-.05-.65-.17c-.2-.11-.36-.26-.48-.44-.11-.18-.17-.39-.17-.61v-1.18c0-.22.06-.43.17-.61.12-.19.28-.33.48-.45.19-.11.42-.16.65-.16s.46.05.65.16c.2.12.37.26.48.45.12.18.18.39.18.61Z"/>
  <path class="cls-11" d="M398.75,70.83v1.39c0,.07,0,.13-.01.19h0c-.03.41-.14.79-.35,1.13-.23.4-.58.72-1.02.95-.45.24-.98.36-1.61.36s-1.16-.12-1.61-.36c-.29-.15-.54-.34-.73-.57t-.01-.02c-.11-.11-.19-.23-.28-.36-.2-.34-.32-.72-.35-1.12-.01-.06-.01-.13-.01-.2v-1.37h.01l1.67-.02v1.39c0,.22.06.43.17.61.12.18.28.33.48.44.19.12.42.17.65.17s.46-.05.65-.17c.2-.11.37-.26.48-.44.12-.18.18-.39.18-.61v-1.39h1.67Z"/>
  <path class="cls-15" d="M397.09,71.58v.17s0,.06-.03.09c-.02.03-.04.05-.07.07-.03.02-.06.03-.1.03s-.07,0-.1-.03c-.03-.02-.06-.04-.07-.07-.02-.03-.03-.06-.03-.09v-.17s0-.06.03-.09c.02-.03.04-.05.07-.07.03-.02.06-.02.1-.02s.07,0,.1.02c.03.02.06.04.07.07.02.03.03.06.03.09Z"/>
  <path class="cls-15" d="M395.17,71.58v.17s0,.06-.03.09c-.02.03-.04.05-.07.07-.03.02-.06.03-.1.03s-.07,0-.1-.03c-.03-.02-.06-.04-.07-.07-.02-.03-.03-.06-.03-.09v-.17s0-.06.03-.09c.02-.03.04-.05.07-.07.03-.02.06-.02.1-.02s.07,0,.1.02c.03.02.06.04.07.07.02.03.03.06.03.09Z"/>
  <rect class="cls-7" x="396.42" y="72.18" width="2.95" height="2.62" rx="1.31" ry="1.31"/>
  <path class="cls-8" d="M398.59,72.72s-.07,0-.09.02l-.03.02s0,0,0,0l-.43.38-.13.12-.13-.12-.43-.38s0,0,0,0l-.03-.02s-.06-.02-.09-.02c-.13,0-.23.1-.23.23v1.21c0,.13.1.23.23.23s.23-.1.23-.23v-.7l.46.4h0s0,0,0,0h0s0,0,0,0h0s0,0,0,0l.46-.4v.7c0,.13.1.23.23.23s.23-.1.23-.23v-1.21c0-.13-.1-.23-.23-.23Z"/>
  <text class="cls-10" transform="translate(373.61 72.12)"><tspan x="0" y="0">ask pm</tspan></text>
  <path class="cls-11" d="M373.66,67.67v3.06s1.37,0,1.37,0v-3.07c0-.18.05-.36.15-.51.09-.16.23-.28.38-.38.17-.09.34-.13.54-.13s.37.04.53.13c.16.1.29.22.39.38.09.15.14.33.14.51v1.15s1.37,0,1.37,0v-1.15c0-.06,0-.12,0-.18-.03-.33-.11-.64-.28-.93-.11-.18-.24-.34-.4-.48-.13-.12-.28-.23-.44-.31-.36-.2-.8-.3-1.31-.3s-.96.1-1.32.3c-.37.19-.64.46-.83.79-.2.33-.29.7-.29,1.1Z"/>
  <path class="cls-8" d="M377.74,69.23h1.56v1.39s-.05.06-.08.03l-1.48-1.42Z"/>
  <path class="cls-11" d="M378.62,67.64v1.14h-1.37s0-1.14,0-1.14c0-.18-.05-.36-.15-.51-.09-.16-.23-.28-.39-.38-.16-.09-.34-.13-.53-.13s-.38.04-.53.13c-.17.1-.29.22-.39.38-.09.15-.14.33-.14.51v1.15h-1.38v-1.15c0-.06,0-.11,0-.16.02-.34.12-.65.28-.94.19-.33.48-.6.83-.79.37-.2.8-.3,1.32-.3s.95.1,1.32.3c.17.08.31.19.44.31.16.14.28.3.39.48.17.28.26.59.28.93,0,.06,0,.12,0,.18Z"/>
  <path class="cls-11" d="M377.25,67.06v.98c0,.18-.05.36-.15.51-.09.15-.23.28-.39.37-.16.1-.34.14-.53.14s-.38-.04-.53-.14c-.17-.09-.29-.22-.39-.37-.09-.15-.14-.33-.14-.51v-.98c0-.18.05-.36.14-.51.1-.16.23-.28.39-.38.16-.09.34-.13.53-.13s.38.04.53.13c.17.1.3.22.39.38.1.15.15.33.15.51Z"/>
  <path class="cls-11" d="M378.62,67.44v.61c0,.06,0,.11,0,.16h0c-.03.34-.12.66-.28.94-.19.33-.48.6-.83.79-.37.2-.8.3-1.32.3s-.95-.1-1.32-.3c-.23-.13-.44-.28-.6-.48t0-.02c-.09-.09-.16-.19-.23-.3-.17-.28-.26-.6-.28-.93,0-.05,0-.11,0-.17v-.71.12s1.38-.02,1.38-.02v.61c0,.18.05.36.14.51.1.15.23.28.39.37.16.1.34.14.53.14s.38-.04.53-.14c.17-.09.3-.22.39-.37.1-.15.15-.33.15-.51v-.61h1.37Z"/>
  <rect class="cls-8" x="376.84" y="68.28" width="2.46" height="2.19" rx="1.09" ry="1.09"/>
  <path class="cls-11" d="M378.65,68.72s-.06,0-.08.02h-.03s0,.02,0,.02l-.36.31-.11.1-.11-.1-.36-.31s0,0,0,0h-.03s-.05-.03-.08-.03c-.11,0-.19.09-.19.19v1.01c0,.11.09.19.19.19s.19-.09.19-.19v-.58l.39.34h0s0,0,0,0h0s0,0,0,0h0s0,0,0,0l.39-.34v.58c0,.11.09.19.19.19s.19-.09.19-.19v-1.01c0-.11-.09-.19-.19-.19Z"/>
  <circle class="cls-15" cx="375.47" cy="67.6" r=".34"/>
  <circle class="cls-15" cx="377.26" cy="67.6" r=".34"/>
  <circle class="cls-15" cx="404.03" cy="72.57" r=".34"/>
  <circle class="cls-15" cx="405.83" cy="72.57" r=".34"/>
  <rect class="cls-12" x="420.97" y="67.58" width="9.14" height="8.65" rx="1.29" ry="1.29"/>
  <path class="cls-25" d="M425.59,71.44h-3.07v3.49c0,.11.13.15.2.07l2.87-3.56Z"/>
  <path class="cls-25" d="M428.18,71.59v1.31h-1.57s0-1.31,0-1.31c0-.21-.06-.41-.17-.58-.11-.18-.26-.32-.45-.43-.18-.11-.39-.15-.61-.15s-.43.05-.61.15c-.19.12-.34.25-.45.43-.11.17-.16.37-.16.58v1.32h-1.58v-1.32c0-.07,0-.12,0-.18.02-.39.13-.75.33-1.08.22-.38.55-.69.96-.91.42-.23.92-.35,1.51-.35s1.09.12,1.51.35c.19.1.35.22.51.35.18.16.33.35.45.56.19.33.3.68.33,1.06,0,.07,0,.13,0,.2Z"/>
  <path class="cls-25" d="M426.61,70.93v1.13c0,.21-.06.41-.17.58-.11.17-.26.32-.45.42-.18.12-.39.16-.61.16s-.43-.05-.61-.16c-.19-.11-.34-.25-.45-.42-.11-.17-.16-.37-.16-.58v-1.13c0-.21.06-.41.16-.58.12-.18.26-.32.45-.43.18-.11.39-.15.61-.15s.43.05.61.15c.19.12.35.25.45.43.12.17.17.37.17.58Z"/>
  <path class="cls-25" d="M428.18,71.37v.7c0,.07,0,.12,0,.18h0c-.03.39-.13.76-.33,1.08-.22.38-.55.69-.96.91-.42.23-.92.35-1.51.35s-1.09-.12-1.51-.35c-.27-.14-.51-.33-.69-.55t0-.02c-.11-.11-.18-.22-.26-.35-.19-.33-.3-.69-.33-1.07,0-.06,0-.12,0-.19v-.82.14s1.58-.02,1.58-.02v.7c0,.21.06.41.16.58.12.17.26.32.45.42.18.12.39.16.61.16s.43-.05.61-.16c.19-.11.35-.25.45-.42.12-.17.17-.37.17-.58v-.7h1.57Z"/>
  <circle class="cls-15" cx="424.56" cy="71.55" r=".39"/>
  <circle class="cls-15" cx="426.63" cy="71.55" r=".39"/>
  <path class="cls-26" d="M427.34,73.55h1.76v1.56s-.06.07-.09.03l-1.67-1.59Z"/>
  <rect class="cls-8" x="408.13" y="82.04" width="1.03" height="1.88" rx=".47" ry=".47"/>
  <rect class="cls-12" x="401.47" y="76.93" width="9.14" height="8.65" rx="1.29" ry="1.29"/>
  <text class="cls-9" transform="translate(403.11 79.37)"><tspan x="0" y="0">ask pm</tspan></text>
  <path class="cls-24" d="M409.18,81.62v2.44h-1.05s0-2.44,0-2.44c0-.14-.04-.28-.12-.39-.07-.12-.17-.21-.3-.29-.12-.07-.26-.1-.41-.1s-.29.03-.41.1c-.13.08-.22.17-.3.29-.07.12-.11.25-.11.39v.88h-1.06v-.88s0-.08,0-.12c.01-.26.09-.5.22-.72.15-.26.37-.46.64-.61.28-.15.62-.23,1.01-.23s.73.08,1.01.23c.13.06.24.15.34.24.12.11.22.23.3.37.13.22.2.45.22.71,0,.04,0,.09,0,.13Z"/>
  <path class="cls-13" d="M404.77,81.88h-1.96v2.24c0,.07.09.1.13.05l1.84-2.28Z"/>
  <path class="cls-13" d="M406.56,81.62v.88h-1.05s0-.88,0-.88c0-.14-.04-.28-.12-.39-.07-.12-.17-.21-.3-.29-.12-.07-.26-.1-.41-.1s-.29.03-.41.1c-.13.08-.22.17-.3.29-.07.12-.11.25-.11.39v.88h-1.06v-.88s0-.08,0-.12c.01-.26.09-.5.22-.72.15-.26.37-.46.64-.61.28-.15.62-.23,1.01-.23s.73.08,1.01.23c.13.06.24.15.34.24.12.11.22.23.3.37.13.22.2.45.22.71,0,.04,0,.09,0,.13Z"/>
  <path class="cls-13" d="M405.51,81.62v.76c0,.14-.04.28-.12.39-.07.12-.17.21-.3.28-.12.08-.26.11-.41.11s-.29-.03-.41-.11c-.13-.07-.22-.17-.3-.28-.07-.12-.11-.25-.11-.39v-.76c0-.14.04-.28.11-.39.08-.12.17-.21.3-.29.12-.07.26-.1.41-.1s.29.03.41.1c.13.08.23.17.3.29.08.12.12.25.12.39Z"/>
  <path class="cls-13" d="M406.56,81.49v.89s0,.08,0,.12h0c-.02.26-.09.51-.22.72-.15.26-.37.46-.64.61-.28.15-.61.23-1.01.23s-.73-.08-1.01-.23c-.18-.1-.34-.22-.46-.37t0-.01c-.07-.07-.12-.15-.17-.23-.13-.22-.2-.46-.22-.72,0-.04,0-.08,0-.13v-.88h1.06s0,.88,0,.88c0,.14.04.28.11.39.08.12.17.21.3.28.12.08.26.11.41.11s.29-.03.41-.11c.13-.07.23-.17.3-.28.08-.12.12-.25.12-.39v-.89h1.05Z"/>
  <rect class="cls-26" x="426.34" y="72.48" width="2.76" height="2.46" rx="1.23" ry="1.23"/>
  <path class="cls-1" d="M428.37,72.98s-.06,0-.09.02l-.03.02s0,0,0,0l-.4.35-.13.11-.13-.11-.4-.35s0,0,0,0l-.03-.02s-.05-.02-.09-.02c-.12,0-.22.1-.22.22v1.13c0,.12.1.22.22.22s.22-.1.22-.22v-.66l.43.38h0s0,0,0,0h0s0,0,0,0h0s0,0,0,0l.43-.38v.66c0,.12.1.22.22.22s.22-.1.22-.22v-1.13c0-.12-.1-.22-.22-.22Z"/>
  <rect class="cls-26" x="430.77" y="67.58" width="9.14" height="8.65" rx="1.29" ry="1.29"/>
  <path class="cls-25" d="M435.39,71.44h-3.07v3.49c0,.11.13.15.2.07l2.87-3.56Z"/>
  <path class="cls-25" d="M437.99,71.59v1.31h-1.57s0-1.31,0-1.31c0-.21-.06-.41-.17-.58-.11-.18-.26-.32-.45-.43-.18-.11-.39-.15-.61-.15s-.43.05-.61.15c-.19.12-.34.25-.45.43-.11.17-.16.37-.16.58v1.32h-1.58v-1.32c0-.07,0-.12,0-.18.02-.39.13-.75.33-1.08.22-.38.55-.69.96-.91.42-.23.92-.35,1.51-.35s1.09.12,1.51.35c.19.1.35.22.51.35.18.16.33.35.45.56.19.33.3.68.33,1.06,0,.07,0,.13,0,.2Z"/>
  <path class="cls-25" d="M436.41,70.93v1.13c0,.21-.06.41-.17.58-.11.17-.26.32-.45.42-.18.12-.39.16-.61.16s-.43-.05-.61-.16c-.19-.11-.34-.25-.45-.42-.11-.17-.16-.37-.16-.58v-1.13c0-.21.06-.41.16-.58.12-.18.26-.32.45-.43.18-.11.39-.15.61-.15s.43.05.61.15c.19.12.35.25.45.43.12.17.17.37.17.58Z"/>
  <path class="cls-25" d="M437.99,71.37v.7c0,.07,0,.12,0,.18h0c-.03.39-.13.76-.33,1.08-.22.38-.55.69-.96.91-.42.23-.92.35-1.51.35s-1.09-.12-1.51-.35c-.27-.14-.51-.33-.69-.55t0-.02c-.11-.11-.18-.22-.26-.35-.19-.33-.3-.69-.33-1.07,0-.06,0-.12,0-.19v-.82.14s1.58-.02,1.58-.02v.7c0,.21.06.41.16.58.12.17.26.32.45.42.18.12.39.16.61.16s.43-.05.61-.16c.19-.11.35-.25.45-.42.12-.17.17-.37.17-.58v-.7h1.57Z"/>
  <circle class="cls-15" cx="434.36" cy="71.55" r=".39"/>
  <circle class="cls-15" cx="436.43" cy="71.55" r=".39"/>
  <path class="cls-17" d="M437.14,73.55h1.76v1.56s-.06.07-.09.03l-1.67-1.59Z"/>
  <rect class="cls-17" x="436.14" y="72.48" width="2.76" height="2.46" rx="1.23" ry="1.23"/>
  <path class="cls-13" d="M438.17,72.98s-.06,0-.09.02l-.03.02s0,0,0,0l-.4.35-.13.11-.13-.11-.4-.35s0,0,0,0l-.03-.02s-.05-.02-.09-.02c-.12,0-.22.1-.22.22v1.13c0,.12.1.22.22.22s.22-.1.22-.22v-.66l.43.38h0s0,0,0,0h0s0,0,0,0h0s0,0,0,0l.43-.38v.66c0,.12.1.22.22.22s.22-.1.22-.22v-1.13c0-.12-.1-.22-.22-.22Z"/>
  <circle class="cls-15" cx="404.03" cy="81.8" r=".34"/>
  <circle class="cls-15" cx="405.83" cy="81.8" r=".34"/>
  <rect class="cls-8" x="418.04" y="82.04" width="1.03" height="1.88" rx=".47" ry=".47"/>
  <rect class="cls-12" x="411.39" y="76.93" width="9.14" height="8.65" rx="1.29" ry="1.29"/>
  <text class="cls-9" transform="translate(413.03 79.37)"><tspan x="0" y="0">ask pm</tspan></text>
  <path class="cls-24" d="M419.1,81.62v2.44h-1.05s0-2.44,0-2.44c0-.14-.04-.28-.12-.39-.07-.12-.17-.21-.3-.29-.12-.07-.26-.1-.41-.1s-.29.03-.41.1c-.13.08-.22.17-.3.29-.07.12-.11.25-.11.39v.88h-1.06v-.88s0-.08,0-.12c.01-.26.09-.5.22-.72.15-.26.37-.46.64-.61.28-.15.62-.23,1.01-.23s.73.08,1.01.23c.13.06.24.15.34.24.12.11.22.23.3.37.13.22.2.45.22.71,0,.04,0,.09,0,.13Z"/>
  <path class="cls-13" d="M414.69,81.88h-1.96v2.24c0,.07.09.1.13.05l1.84-2.28Z"/>
  <path class="cls-13" d="M416.48,81.62v.88h-1.05s0-.88,0-.88c0-.14-.04-.28-.12-.39-.07-.12-.17-.21-.3-.29-.12-.07-.26-.1-.41-.1s-.29.03-.41.1c-.13.08-.22.17-.3.29-.07.12-.11.25-.11.39v.88h-1.06v-.88s0-.08,0-.12c.01-.26.09-.5.22-.72.15-.26.37-.46.64-.61.28-.15.62-.23,1.01-.23s.73.08,1.01.23c.13.06.24.15.34.24.12.11.22.23.3.37.13.22.2.45.22.71,0,.04,0,.09,0,.13Z"/>
  <path class="cls-13" d="M415.43,81.62v.76c0,.14-.04.28-.12.39-.07.12-.17.21-.3.28-.12.08-.26.11-.41.11s-.29-.03-.41-.11c-.13-.07-.22-.17-.3-.28-.07-.12-.11-.25-.11-.39v-.76c0-.14.04-.28.11-.39.08-.12.17-.21.3-.29.12-.07.26-.1.41-.1s.29.03.41.1c.13.08.23.17.3.29.08.12.12.25.12.39Z"/>
  <path class="cls-13" d="M416.48,81.49v.89s0,.08,0,.12h0c-.02.26-.09.51-.22.72-.15.26-.37.46-.64.61-.28.15-.61.23-1.01.23s-.73-.08-1.01-.23c-.18-.1-.34-.22-.46-.37t0-.01c-.07-.07-.12-.15-.17-.23-.13-.22-.2-.46-.22-.72,0-.04,0-.08,0-.13v-.88h1.06s0,.88,0,.88c0,.14.04.28.11.39.08.12.17.21.3.28.12.08.26.11.41.11s.29-.03.41-.11c.13-.07.23-.17.3-.28.08-.12.12-.25.12-.39v-.89h1.05Z"/>
  <circle class="cls-15" cx="413.95" cy="81.8" r=".34"/>
  <circle class="cls-15" cx="415.75" cy="81.8" r=".34"/>
  <rect class="cls-8" x="427.5" y="82.04" width="1.03" height="1.88" rx=".47" ry=".47"/>
  <rect class="cls-12" x="420.85" y="76.93" width="9.14" height="8.65" rx="1.29" ry="1.29"/>
  <text class="cls-9" transform="translate(422.48 79.37)"><tspan x="0" y="0">ask pm</tspan></text>
  <path class="cls-21" d="M428.56,81.62v2.44h-1.05s0-2.44,0-2.44c0-.14-.04-.28-.12-.39-.07-.12-.17-.21-.3-.29-.12-.07-.26-.1-.41-.1s-.29.03-.41.1c-.13.08-.22.17-.3.29-.07.12-.11.25-.11.39v.88h-1.06v-.88s0-.08,0-.12c.01-.26.09-.5.22-.72.15-.26.37-.46.64-.61.28-.15.62-.23,1.01-.23s.73.08,1.01.23c.13.06.24.15.34.24.12.11.22.23.3.37.13.22.2.45.22.71,0,.04,0,.09,0,.13Z"/>
  <g>
    <path class="cls-22" d="M424.15,81.88h-1.96v2.24c0,.07.09.1.13.05l1.84-2.28Z"/>
    <path class="cls-22" d="M425.94,81.62v.88h-1.05s0-.88,0-.88c0-.14-.04-.28-.12-.39-.07-.12-.17-.21-.3-.29-.12-.07-.26-.1-.41-.1s-.29.03-.41.1c-.13.08-.22.17-.3.29-.07.12-.11.25-.11.39v.88h-1.06v-.88s0-.08,0-.12c.01-.26.09-.5.22-.72.15-.26.37-.46.64-.61.28-.15.62-.23,1.01-.23s.73.08,1.01.23c.13.06.24.15.34.24.12.11.22.23.3.37.13.22.2.45.22.71,0,.04,0,.09,0,.13Z"/>
    <path class="cls-22" d="M424.89,81.62v.76c0,.14-.04.28-.12.39-.07.12-.17.21-.3.28-.12.08-.26.11-.41.11s-.29-.03-.41-.11c-.13-.07-.22-.17-.3-.28-.07-.12-.11-.25-.11-.39v-.76c0-.14.04-.28.11-.39.08-.12.17-.21.3-.29.12-.07.26-.1.41-.1s.29.03.41.1c.13.08.23.17.3.29.08.12.12.25.12.39Z"/>
    <path class="cls-22" d="M425.94,81.49v.89s0,.08,0,.12h0c-.02.26-.09.51-.22.72-.15.26-.37.46-.64.61-.28.15-.61.23-1.01.23s-.73-.08-1.01-.23c-.18-.1-.34-.22-.46-.37t0-.01c-.07-.07-.12-.15-.17-.23-.13-.22-.2-.46-.22-.72,0-.04,0-.08,0-.13v-.88h1.06s0,.88,0,.88c0,.14.04.28.11.39.08.12.17.21.3.28.12.08.26.11.41.11s.29-.03.41-.11c.13-.07.23-.17.3-.28.08-.12.12-.25.12-.39v-.89h1.05Z"/>
  </g>
  <circle class="cls-15" cx="423.41" cy="81.8" r=".34"/>
  <circle class="cls-15" cx="425.21" cy="81.8" r=".34"/>
  <rect class="cls-8" x="437.25" y="82.04" width="1.03" height="1.88" rx=".47" ry=".47"/>
  <rect class="cls-26" x="430.59" y="76.93" width="9.14" height="8.65" rx="1.29" ry="1.29"/>
  <text class="cls-19" transform="translate(432.23 79.37)"><tspan x="0" y="0">ask pm</tspan></text>
  <path class="cls-21" d="M438.3,81.62v2.44h-1.05s0-2.44,0-2.44c0-.14-.04-.28-.12-.39-.07-.12-.17-.21-.3-.29-.12-.07-.26-.1-.41-.1s-.29.03-.41.1c-.13.08-.22.17-.3.29-.07.12-.11.25-.11.39v.88h-1.06v-.88s0-.08,0-.12c.01-.26.09-.5.22-.72.15-.26.37-.46.64-.61.28-.15.62-.23,1.01-.23s.73.08,1.01.23c.13.06.24.15.34.24.12.11.22.23.3.37.13.22.2.45.22.71,0,.04,0,.09,0,.13Z"/>
  <path class="cls-23" d="M433.89,81.88h-1.96v2.24c0,.07.09.1.13.05l1.84-2.28Z"/>
  <path class="cls-23" d="M435.68,81.62v.88h-1.05s0-.88,0-.88c0-.14-.04-.28-.12-.39-.07-.12-.17-.21-.3-.29-.12-.07-.26-.1-.41-.1s-.29.03-.41.1c-.13.08-.22.17-.3.29-.07.12-.11.25-.11.39v.88h-1.06v-.88s0-.08,0-.12c.01-.26.09-.5.22-.72.15-.26.37-.46.64-.61.28-.15.62-.23,1.01-.23s.73.08,1.01.23c.13.06.24.15.34.24.12.11.22.23.3.37.13.22.2.45.22.71,0,.04,0,.09,0,.13Z"/>
  <path class="cls-23" d="M434.63,81.62v.76c0,.14-.04.28-.12.39-.07.12-.17.21-.3.28-.12.08-.26.11-.41.11s-.29-.03-.41-.11c-.13-.07-.22-.17-.3-.28-.07-.12-.11-.25-.11-.39v-.76c0-.14.04-.28.11-.39.08-.12.17-.21.3-.29.12-.07.26-.1.41-.1s.29.03.41.1c.13.08.23.17.3.29.08.12.12.25.12.39Z"/>
  <path class="cls-23" d="M435.68,81.49v.89s0,.08,0,.12h0c-.02.26-.09.51-.22.72-.15.26-.37.46-.64.61-.28.15-.61.23-1.01.23s-.73-.08-1.01-.23c-.18-.1-.34-.22-.46-.37t0-.01c-.07-.07-.12-.15-.17-.23-.13-.22-.2-.46-.22-.72,0-.04,0-.08,0-.13v-.88h1.06s0,.88,0,.88c0,.14.04.28.11.39.08.12.17.21.3.28.12.08.26.11.41.11s.29-.03.41-.11c.13-.07.23-.17.3-.28.08-.12.12-.25.12-.39v-.89h1.05Z"/>
  <circle class="cls-15" cx="433.15" cy="81.8" r=".34"/>
  <circle class="cls-15" cx="434.95" cy="81.8" r=".34"/>
  <path class="cls-4" d="M.25,40.02L14.46,8.94C17.42,3.59,23.06.27,29.17.27h49.75c6.5,0,11.77,5.27,11.77,11.77v27.77"/>
</svg>