<?xml version="1.0" encoding="UTF-8"?>
<svg id="Layer_1" data-name="Layer 1" xmlns="http://www.w3.org/2000/svg" viewBox="0 0 9.14 8.65">
  <defs>
    <style>
      .cls-1 {
        fill: #d4bbff;
      }

      .cls-2, .cls-3 {
        fill: #0f62fe;
      }

      .cls-4 {
        fill: #fff;
      }

      .cls-3 {
        stroke: #0f62fe;
        stroke-miterlimit: 10;
      }

      .cls-5 {
        fill: #002d9c;
      }

      .cls-6 {
        fill: #33b1ff;
      }
    </style>
  </defs>
  <rect class="cls-1" width="9.14" height="8.65" rx="1.29" ry="1.29"/>
  <path class="cls-2" d="M4.62,3.86H1.55v3.49c0,.11.13.15.2.07l2.87-3.56Z"/>
  <path class="cls-2" d="M7.17,4.02v1.31h-1.57s0-1.31,0-1.31c0-.21-.06-.41-.17-.58-.11-.18-.26-.32-.45-.43-.18-.11-.39-.15-.61-.15s-.43.05-.61.15c-.19.12-.34.25-.45.43-.11.17-.16.37-.16.58v1.32h-1.58v-1.32c0-.07,0-.12,0-.18.02-.39.13-.75.33-1.08.22-.38.55-.69.96-.91.42-.23.92-.35,1.51-.35s1.09.12,1.51.35c.19.1.35.22.51.35.18.16.33.35.45.56.19.33.3.68.33,1.06,0,.07,0,.13,0,.2Z"/>
  <path class="cls-3" d="M5.64,3.36v1.13c0,.21-.06.41-.17.58-.11.17-.26.32-.45.42-.18.12-.39.16-.61.16s-.43-.05-.61-.16c-.19-.11-.34-.25-.45-.42-.11-.17-.16-.37-.16-.58v-1.13c0-.21.06-.41.16-.58.12-.18.26-.32.45-.43.18-.11.39-.15.61-.15s.43.05.61.15c.19.12.35.25.45.43.12.17.17.37.17.58Z"/>
  <path class="cls-2" d="M7.16,4v.49c0,.07,0,.12,0,.18h0c-.03.39-.13.76-.32,1.08-.22.38-.54.69-.95.91-.42.23-.91.35-1.5.35s-1.08-.12-1.5-.35c-.27-.14-.5-.33-.68-.55t0-.02c-.1-.11-.18-.22-.26-.35-.19-.33-.29-.69-.32-1.07,0-.06,0-.12,0-.19v-.82.14s1.57-.02,1.57-.02v.7c0,.21.06.41.16.58.11.17.26.32.45.42.18.12.39.16.61.16s.43-.05.61-.16c.19-.11.34-.25.45-.42.11-.17.17-.37.17-.58v-.49h1.56Z"/>
  <circle class="cls-4" cx="3.59" cy="3.97" r=".39"/>
  <circle class="cls-4" cx="5.66" cy="3.97" r=".39"/>
  <g>
    <path class="cls-6" d="M6.37,5.97h1.76v1.56s-.06.07-.09.03l-1.67-1.59Z"/>
    <rect class="cls-6" x="5.37" y="4.9" width="2.76" height="2.46" rx="1.23" ry="1.23"/>
    <path class="cls-5" d="M7.4,5.4s-.06,0-.09.02l-.03.02s0,0,0,0l-.4.35-.13.11-.13-.11-.4-.35s0,0,0,0l-.03-.02s-.05-.02-.09-.02c-.12,0-.22.1-.22.22v1.13c0,.12.1.22.22.22s.22-.1.22-.22v-.66l.43.38h0s0,0,0,0h0s0,0,0,0h0s0,0,0,0l.43-.38v.66c0,.12.1.22.22.22s.22-.1.22-.22v-1.13c0-.12-.1-.22-.22-.22Z"/>
  </g>
</svg>